<svg xmlns="http://www.w3.org/2000/svg" viewBox="0 0 640 520" role="img" aria-labelledby="title desc">
  <title id="title">Bowl of dumplings</title>
  <desc id="desc">Stylised illustration of dumplings in a dark bowl.</desc>
  <defs>
    <linearGradient id="bowl" x1="180" y1="260" x2="470" y2="500" gradientUnits="userSpaceOnUse">
      <stop stop-color="#273056"/>
      <stop offset="1" stop-color="#11162B"/>
    </linearGradient>
    <linearGradient id="dumpling" x1="200" y1="160" x2="420" y2="340" gradientUnits="userSpaceOnUse">
      <stop stop-color="#FFFDF8"/>
      <stop offset="1" stop-color="#DDD9F0"/>
    </linearGradient>
    <filter id="shadow" x="-20%" y="-20%" width="140%" height="160%">
      <feDropShadow dx="0" dy="20" stdDeviation="18" flood-color="#141A31" flood-opacity=".25"/>
    </filter>
  </defs>
  <ellipse cx="320" cy="465" rx="210" ry="30" fill="#141A31" opacity=".18"/>
  <path d="M110 260h420c-12 140-82 223-210 223S122 400 110 260Z" fill="url(#bowl)" filter="url(#shadow)"/>
  <ellipse cx="320" cy="264" rx="210" ry="56" fill="#353E68"/>
  <g filter="url(#shadow)" fill="url(#dumpling)" stroke="#C8C4E1" stroke-width="4">
    <path d="M150 260c12-67 52-111 101-111 47 0 90 46 99 111-55 39-145 39-200 0Z"/>
    <path d="M282 246c10-79 55-130 111-130 55 0 103 55 111 130-62 46-159 46-222 0Z"/>
    <path d="M208 314c9-66 48-108 96-108 47 0 90 46 96 108-54 38-138 38-192 0Z"/>
    <path d="M363 321c8-57 41-94 83-94 40 0 78 39 83 94-47 34-119 34-166 0Z"/>
  </g>
  <g fill="none" stroke="#A49EC7" stroke-width="4" stroke-linecap="round">
    <path d="M181 240c16-35 39-54 70-62M224 253c10-33 25-54 46-64M318 222c18-40 43-65 75-77M372 235c12-38 31-65 56-79M241 293c15-31 36-49 63-57M389 300c12-27 31-43 57-49"/>
  </g>
  <circle cx="470" cy="375" r="8" fill="#66D9E8"/>
  <circle cx="492" cy="358" r="5" fill="#E7A7C7"/>
</svg>